<?xml version="1.0" encoding="utf-8"?>
<!-- Generator: Adobe Illustrator 22.0.1, SVG Export Plug-In . SVG Version: 6.00 Build 0)  -->
<svg version="1.1" id="Capa_1" xmlns="http://www.w3.org/2000/svg" xmlns:xlink="http://www.w3.org/1999/xlink" x="0px" y="0px"
	 viewBox="0 0 477.8 477.8" style="enable-background:new 0 0 477.8 477.8;" xml:space="preserve">
<style type="text/css">
	.st0{fill:#FFC219;}
</style>
<g>
	<path class="st0" d="M461.4,152.4c-9.8-25.1-23.6-48.2-40.8-68.4C385,42.2,335.2,13,278.7,3.5c-13-2.2-26.2-3.6-39.8-3.6
		s-26.8,1.4-39.8,3.6C142.6,13.1,92.8,42.3,57.2,84c-17.2,20.2-31,43.3-40.8,68.4C5.9,179.3,0,208.4,0,238.9
		c0,28.1,5.1,54.9,14,79.9c9.1,25.4,22.1,48.9,38.7,69.6c35.9,44.6,87.5,75.9,146.4,85.8c13,2.2,26.2,3.6,39.8,3.6
		s26.8-1.4,39.8-3.6c58.9-9.9,110.5-41.2,146.4-85.8c16.6-20.6,29.7-44.1,38.7-69.6c8.9-25,14-51.8,14-79.9
		C477.8,208.4,471.8,179.3,461.4,152.4z M433.4,168.6l-41.8,24.1c-7.9-26.1-22.4-49.4-41.4-68l42.2-24.3
		C410.1,120.1,424.2,143.2,433.4,168.6z M366.6,238.9c0,70.4-57.3,127.7-127.7,127.7s-127.7-57.3-127.7-127.7
		s57.3-127.7,127.7-127.7C309.3,111.2,366.6,168.5,366.6,238.9z M238.9,31.9c13.6,0,26.9,1.4,39.8,3.9v48.8
		c-12.8-3.3-26.1-5.2-39.8-5.2c-13.8,0-27.1,1.9-39.8,5.2V35.8C212,33.3,225.3,31.9,238.9,31.9z M85.5,100.4l42.2,24.3
		c-19.1,18.6-33.5,41.9-41.5,68l-41.8-24.1C53.6,143.1,67.7,120.1,85.5,100.4z M42,302.6l42.4-24.5c6.8,26.6,20.1,50.4,38.3,69.8
		l-42,24.2C63.6,351.9,50.4,328.4,42,302.6z M238.9,445.9c-13.6,0-26.9-1.4-39.8-3.9v-48.8c12.8,3.3,26.1,5.2,39.8,5.2
		c13.8,0,27.1-1.9,39.8-5.2V442C265.8,444.5,252.5,445.9,238.9,445.9z M397,372.2L355,348c18.2-19.4,31.6-43.3,38.3-69.8l42.4,24.5
		C427.4,328.4,414.2,351.9,397,372.2z"/>
	<path class="st0" d="M252.4,221.5c-20.3-7.6-28.7-12.7-28.7-20.5c0-6.7,5-13.4,20.5-13.4c9,0,16.2,1.5,22,3.3c3.3,1,6.8,0.6,9.9-1
		c3-1.7,5.2-4.5,6-7.8l0.2-0.8c1.9-7.6-2.6-15.4-10.2-17.3c-5.8-1.5-12.8-2.6-21.2-3v-9c0-6.1-4.5-11.4-10.6-12
		c-7-0.7-12.8,4.8-12.8,11.7v11c-25.6,5-40.4,21.5-40.4,42.5c0,23.2,17.4,35.1,43,43.7c17.7,6,25.3,11.7,25.3,20.8
		c0,9.6-9.3,14.8-22.9,14.8c-9.8,0-18.9-2-26.9-4.8c-3.3-1.2-7-0.9-10.1,0.8c-3.1,1.7-5.4,4.6-6.3,8l-0.1,0.4
		c-2.1,8.1,2.6,16.5,10.7,18.9c7.9,2.4,17.2,4,26.6,4.5V323c0,6.5,5.2,11.7,11.7,11.7l0,0c6.5,0,11.7-5.2,11.7-11.7v-12.3
		c27.5-4.8,42.5-22.9,42.5-44.2C292.3,244.7,280.8,231.6,252.4,221.5z"/>
</g>
</svg>
