<?xml version="1.0" encoding="utf-8"?>
<!-- Generator: Adobe Illustrator 22.0.1, SVG Export Plug-In . SVG Version: 6.00 Build 0)  -->
<svg version="1.1" id="Capa_1" xmlns="http://www.w3.org/2000/svg" xmlns:xlink="http://www.w3.org/1999/xlink" x="0px" y="0px"
	 viewBox="0 0 512 512" style="enable-background:new 0 0 512 512;" xml:space="preserve">
<style type="text/css">
	.st0{fill:#FFC219;}
</style>
<path class="st0" d="M465.2,120.6C457.9,52.9,399.5,0,328.8,0H183.2C112.5,0,54.1,52.9,46.8,120.6C20.3,124.6,0,147.5,0,175v282
	c0,30.3,24.7,55,55,55h402c30.3,0,55-24.7,55-55V175C512,147.5,491.7,124.6,465.2,120.6z M482,457c0,13.8-11.2,25-25,25H55
	c-13.8,0-25-11.2-25-25V175c0-13.8,11.2-25,25-25h6h390h6c13.8,0,25,11.2,25,25V457z M183.2,30h145.6c53.9,0,98.6,39.2,106.1,90
	H77.1C84.5,69.2,129.3,30,183.2,30L183.2,30z"/>
<path class="st0" d="M436,181.1H76c-8.3,0-15,6.7-15,15v180c0,8.3,6.7,15,15,15h360c8.3,0,15-6.7,15-15V196
	C451,187.8,444.3,181,436,181.1L436,181.1z M211,211.1h90v150h-90V211.1z M91,211.1h90v150H91V211.1z M421,361h-90V211h90V361z"/>
<path class="st0" d="M155.3,260.5c-0.7-1.4-2.1-2.3-3.6-2.3h-34.4c-2.2,0-4,1.8-4,4v8.7c0,2.2,1.8,4,4,4H136l-18.1,33.7
	c-0.7,1.2-0.6,2.7,0.1,3.9c0.7,1.2,2,1.9,3.4,1.9h11.9c1.5,0,2.9-0.8,3.6-2.2l21.5-41.6c0.6-1.1,0.6-2.4,0.1-3.5L155.3,260.5z"/>
<path class="st0" d="M275.3,260.5c-0.7-1.4-2.1-2.3-3.6-2.3h-34.4c-2.2,0-4,1.8-4,4v8.7c0,2.2,1.8,4,4,4H256l-18.1,33.7
	c-0.7,1.2-0.6,2.7,0.1,3.9c0.7,1.2,2,1.9,3.4,1.9h11.9c1.5,0,2.9-0.8,3.6-2.2l21.5-41.6c0.6-1.1,0.6-2.4,0.1-3.5L275.3,260.5z"/>
<path class="st0" d="M357.2,274.8h18.7l-18.1,33.7c-0.7,1.2-0.6,2.7,0.1,3.9c0.7,1.2,2,1.9,3.4,1.9h11.9c1.5,0,2.9-0.8,3.6-2.2
	l21.5-41.6c0.6-1.1,0.6-2.4,0.1-3.5l-3.1-6.7c-0.7-1.4-2.1-2.3-3.6-2.3h-34.4c-2.2,0-4,1.8-4,4v8.7C353.2,273,355,274.8,357.2,274.8
	L357.2,274.8z"/>
<path class="st0" d="M436,423H76c-8.3,0-15,6.7-15,15s6.7,15,15,15h360c8.3,0,15-6.7,15-15S444.3,423,436,423z"/>
<circle class="st0" cx="226" cy="75" r="15"/>
<circle class="st0" cx="166" cy="75" r="15"/>
<circle class="st0" cx="286" cy="75" r="15"/>
<circle class="st0" cx="346" cy="75" r="15"/>
</svg>
