<?xml version="1.0" encoding="utf-8"?>
<!-- Generator: Adobe Illustrator 22.0.1, SVG Export Plug-In . SVG Version: 6.00 Build 0)  -->
<svg version="1.1" id="Capa_1" xmlns="http://www.w3.org/2000/svg" xmlns:xlink="http://www.w3.org/1999/xlink" x="0px" y="0px"
	 viewBox="0 0 512 512" style="enable-background:new 0 0 512 512;" xml:space="preserve">
<style type="text/css">
	.st0{fill:#FFC219;}
</style>
<g>
	<g>
		<path class="st0" d="M444.2,82.8c-3.5,20.5-5.3,41.8-5.3,63.6c0,11.1,0.5,22.1,1.4,32.9c19.1-1.1,39-1.6,59.4-1.7
			C488.1,142,469,109.7,444.2,82.8z"/>
	</g>
</g>
<g>
	<g>
		<path class="st0" d="M428.6,67.2C383,25.6,322.4,0.1,256,0.1c-14.8,0-29.3,1.3-43.4,3.8c66.2,35.3,119.2,100.5,152.2,182.6
			c18.4-2.5,37.5-4.5,57.3-6c-0.9-11.2-1.4-22.6-1.4-34.1C420.6,119,423.3,92.4,428.6,67.2z"/>
	</g>
</g>
<g>
	<g>
		<path class="st0" d="M353,206.6c-27.6,4.2-53.5,9.4-77.9,15.5c17.5,38.8,27.5,83.1,27.5,130c0,60.9-13.6,115.7-39.3,159.8
			c21.7-0.6,43.2-3.9,64-10c14.3-4.2,28.2-9.6,41.6-16.2c1.4-0.7,2.7-1.4,4.1-2.1l2.1-10.8c4.3-27.3,8.8-55.5,8.8-84.2
			C384,323.2,373,261.3,353,206.6z"/>
	</g>
</g>
<g>
	<g>
		<path class="st0" d="M504.8,195.9c-21.5,0-42.4,0.5-62.4,1.6c8,59,29.5,109.2,58.4,133.9c7.3-23.8,11.3-49.1,11.3-75.3
			C512,235.4,509.5,215.2,504.8,195.9z"/>
	</g>
</g>
<g>
	<g>
		<path class="st0" d="M64.9,91.5c-1.5,0-3-0.1-4.5-0.1c-29.2,34.7-49.3,76.8-57,122.6c0,0.2-0.1,0.4-0.1,0.6
			c-1.1,6.3-1.8,12.7-2.4,19.2c-0.1,1.1-0.2,2.1-0.2,3.2C0.3,243.2,0,249.6,0,256.1c0,26.5,4,52,11.5,76
			c52.3-44.2,129.1-91.5,237.3-121.9C209.6,138.9,141.9,91.5,64.9,91.5z"/>
	</g>
</g>
<g>
	<g>
		<path class="st0" d="M184,10.5c-0.3,0.1-0.5,0.1-0.8,0.2c-6.2,1.8-12.2,3.9-18.2,6.2c-0.9,0.3-1.7,0.7-2.6,1
			c-5.9,2.3-11.8,4.8-17.4,7.6c-0.2,0.1-0.3,0.2-0.5,0.2c-5.4,2.6-10.7,5.5-15.9,8.5c-1.1,0.6-2.1,1.2-3.2,1.8
			c-5.1,3-10,6.2-14.8,9.5c-1,0.7-1.9,1.4-2.9,2c-10.2,7.4-20,15.5-29,24.3c-0.3,0.3-0.6,0.6-0.9,0.9s-0.6,0.7-0.9,1
			C157.1,78.4,227,129.9,267,205.4c24.8-6.4,51.2-11.8,79.3-16.2C311.5,104.8,254.6,40,184,10.5z"/>
	</g>
</g>
<g>
	<g>
		<path class="st0" d="M424,198.7c-18.1,1.3-35.6,3.1-52.6,5.3c19.9,55.8,30.9,118.5,30.9,184.7c0,28.7-4.2,56.3-8.4,83
			c45.1-28.9,80.5-71.6,100.4-122C458.8,323.1,432.9,266.5,424,198.7z"/>
	</g>
</g>
<g>
	<g>
		<path class="st0" d="M257.3,226.8C146.6,257.5,69.5,306.1,18.2,350.6C54.2,441,140.3,506.2,242,511.7
			c27.6-42.6,42.4-97.6,42.4-159.6C284.4,306.7,274.5,264,257.3,226.8z M97.2,409.5c-1.7,1.4-3.7,2-5.7,2c-2.7,0-5.3-1.2-7.1-3.4
			c-2.1-2.6-4.3-5.2-6.6-8c-7.8-9.2-16.6-19.7-21.8-30.2c-2.3-4.5-0.5-10,4-12.3s10-0.5,12.3,4c4.3,8.6,12.4,18.2,19.5,26.6
			c2.4,2.9,4.8,5.7,6.9,8.3C101.7,400.6,101.1,406.4,97.2,409.5z M200.7,469.4c-1.3,3.8-4.8,6.2-8.7,6.2c-1,0-2-0.2-2.9-0.5
			c-18.7-6.4-37.3-15.7-56.9-28.4c-4.2-2.8-5.4-8.4-2.7-12.7c2.8-4.2,8.4-5.4,12.7-2.7c18.3,11.9,35.6,20.6,52.8,26.4
			C199.7,459.4,202.3,464.6,200.7,469.4z"/>
	</g>
</g>
</svg>
