<?xml version="1.0" encoding="utf-8"?>
<!-- Generator: Adobe Illustrator 22.0.1, SVG Export Plug-In . SVG Version: 6.00 Build 0)  -->
<svg version="1.1" id="圖層_1" xmlns="http://www.w3.org/2000/svg" xmlns:xlink="http://www.w3.org/1999/xlink" x="0px" y="0px"
	 viewBox="0 0 384 384" style="enable-background:new 0 0 384 384;" xml:space="preserve">
<style type="text/css">
	.st0{fill:#FFC219;}
</style>
<path class="st0" d="M208,32.8V0h-32v32.8C100.5,40.3,40.3,100.5,32.8,176H0v32h32.8c7.5,75.5,67.7,135.7,143.2,143.2V384h32v-32.8
	c75.5-7.5,135.7-67.7,143.2-143.2H384v-32h-32.8C343.7,100.5,283.5,40.3,208,32.8z M318.9,176h-32.3c-6.8-40.1-38.4-71.8-78.6-78.6
	V65.1C265.8,72.4,311.6,118.2,318.9,176z M253.9,208c-5.8,22.4-23.5,40.1-45.9,45.9V224h-32v29.9c-22.4-5.8-40.1-23.5-45.9-45.9H160
	v-32h-29.9c5.8-22.4,23.5-40.1,45.9-45.9V160h32v-29.9c22.4,5.8,40.1,23.5,45.9,45.9H224v32H253.9z M176,65.1v32.3
	c-40.1,6.8-71.8,38.4-78.6,78.6H65.1C72.4,118.2,118.2,72.4,176,65.1z M65.1,208h32.3c6.8,40.1,38.4,71.8,78.6,78.6v32.3
	C118.2,311.6,72.4,265.8,65.1,208z M208,318.9v-32.3c40.1-6.8,71.8-38.4,78.6-78.6h32.3C311.6,265.8,265.8,311.6,208,318.9z"/>
</svg>
