<?xml version="1.0" encoding="utf-8"?>
<!-- Generator: Adobe Illustrator 22.0.1, SVG Export Plug-In . SVG Version: 6.00 Build 0)  -->
<svg version="1.1" id="Capa_1" xmlns="http://www.w3.org/2000/svg" xmlns:xlink="http://www.w3.org/1999/xlink" x="0px" y="0px"
	 viewBox="0 0 470 470" style="enable-background:new 0 0 470 470;" xml:space="preserve">
<style type="text/css">
	.st0{fill:#FFC219;}
</style>
<g>
	<g>
		<g>
			<path class="st0" d="M150.2,39.8l36.7,36.7h-25.4c-88.4,0-160,71.6-160,160s71.6,160,160,160v-32c-70.7,0-128-57.3-128-128
				s57.3-128,128-128h25.4l-36.7,36.7l22.6,22.6l75.3-75.3l-75.3-75.3L150.2,39.8z"/>
			<path class="st0" d="M468.5,236.5c-0.1-88.3-71.7-159.9-160-160v32c70.7,0,128,57.3,128,128s-57.3,128-128,128h-25.4l36.7-36.7
				l-22.6-22.6l-75.3,75.3l75.3,75.3l22.6-22.6l-36.7-36.7h25.4C396.8,396.4,468.4,324.8,468.5,236.5z"/>
		</g>
	</g>
</g>
</svg>
