<svg width="452" height="454" viewBox="0 0 452 454" fill="none" xmlns="http://www.w3.org/2000/svg">
<rect width="452" height="454" fill="white"/>
<path fill-rule="evenodd" clip-rule="evenodd" d="M226 452C350.816 452 452 350.816 452 226C452 101.184 350.816 0 226 0C101.184 0 0 101.184 0 226C0 350.816 101.184 452 226 452ZM73 205.3L209 341.3C218.4 350.7 233.6 350.7 242.8 341.3L378.8 205.3C388.2 196 388.2 180.8 378.8 171.4L356.2 148.8C346.9 139.4 331.7 139.4 322.3 148.8L225.9 245.2L129.5 148.8C120.2 139.4 105 139.4 95.6 148.8L73 171.4C63.6 180.7 63.6 195.9 73 205.3Z" fill="#81CB61"/>
</svg>
